<svg height="56" viewBox="0 0 184 56" width="184" xmlns="http://www.w3.org/2000/svg"><path d="m0 0h184v56h-184z" opacity="0"/><path d="m118.581 41.24a2.717 2.717 0 0 1 -.787 1.988 2.786 2.786 0 0 1 -3.905 0 2.7 2.7 0 0 1 -.8-1.988 2.744 2.744 0 1 1 5.492 0zm16.219-9.819a6.3 6.3 0 0 0 -1.375-.618 4.646 4.646 0 0 0 -1.332-.2 3.436 3.436 0 0 0 -2.753 1.197 4.778 4.778 0 0 0 -1.021 3.218 4.75 4.75 0 0 0 1.032 3.269 3.7 3.7 0 0 0 2.918 1.161 3.853 3.853 0 0 0 1.33-.227 4.051 4.051 0 0 0 1.2-.7v4.539a7.551 7.551 0 0 1 -1.961.737 10 10 0 0 1 -2.164.23 7.93 7.93 0 0 1 -6.067-2.393 9.147 9.147 0 0 1 -2.25-6.529 9.113 9.113 0 0 1 2.262-6.516 7.918 7.918 0 0 1 6.055-2.405 12.633 12.633 0 0 1 4.125.676v4.561zm19.718 3.684a8.909 8.909 0 0 1 -2.354 6.517 9.4 9.4 0 0 1 -12.56 0 8.951 8.951 0 0 1 -2.333-6.517 8.949 8.949 0 0 1 2.333-6.516 9.4 9.4 0 0 1 12.569.01 8.938 8.938 0 0 1 2.343 6.506zm-8.634 4.774a2.655 2.655 0 0 0 2.345-1.249 6.425 6.425 0 0 0 .83-3.563 6.379 6.379 0 0 0 -.83-3.539 2.82 2.82 0 0 0 -4.68-.011 6.425 6.425 0 0 0 -.819 3.551 6.47 6.47 0 0 0 .819 3.572 2.636 2.636 0 0 0 2.333 1.239zm11.673 4.148v-17.463h5.255v2.7a7.092 7.092 0 0 1 2.4-2.166 6.332 6.332 0 0 1 2.988-.7 4.671 4.671 0 0 1 2.716.723 3.535 3.535 0 0 1 1.4 2.145 8.427 8.427 0 0 1 2.519-2.166 5.993 5.993 0 0 1 2.854-.7 3.514 3.514 0 0 1 3.136 1.313q.894 1.31.893 5.421v10.9h-5.58v-10.582a3.98 3.98 0 0 0 -.379-2.065 1.444 1.444 0 0 0 -1.3-.568 1.871 1.871 0 0 0 -1.585.621 3.84 3.84 0 0 0 -.471 2.226v10.361h-5.527v-10.575a4.042 4.042 0 0 0 -.389-2.065 1.408 1.408 0 0 0 -1.287-.609 1.9 1.9 0 0 0 -1.626.662 3.837 3.837 0 0 0 -.491 2.226v10.361zm-54.575-32.054h-11.337l-4.219 15.076-4.676-15.076h-10.5l-3.172 16.461-2.943-16.461h-11.335l-4.222 15.076-4.678-15.076h-10.5l-2.366 12.344c-1.779-7.864-8.97-12.344-19.8-12.344h-13.234v32.054h16.037c5.15 0 10.915-1.618 14.356-5.94l-1.139 5.94h11.213l2.312-13.453 3.928 13.453h8.768l3.345-13.38 2.037 13.38h16.459l2.311-13.453 3.925 13.453h8.77l3.343-13.38 2.035 13.38h11.047zm-88.853 20.934v-9.99c2.425 0 6.111.109 6.111 4.974.001 4.973-3.545 5.016-6.111 5.016z" fill-rule="evenodd"/></svg>