<svg fill="none" height="32" viewBox="0 0 142 32" width="142" xmlns="http://www.w3.org/2000/svg"><path d="m11.2573 21.6484h1.9917v1.9313h1.9917v1.9314h1.9917v1.9313h11.9834v-1.9313h1.9917v-1.9314h1.9917v-1.9313h1.9917v-11.65249h-1.9917v-1.93135h-1.9917v-1.93135h-1.9917v-1.96353h-11.9502v1.93134h-1.9917v1.93135h-1.9917v1.93135h-1.9917v11.68468zm13.9751-3.8949h-3.9834v-3.8627h3.9834z" fill="#c60312"/><g fill="#fff"><path d="m48.4025 8.35426h-4.7801v-4.18458h-5.8091v23.24052h5.8091v-13.4228h2.6556c1.3942 0 2.3901 1.03 2.3901 2.4463v11.0087h5.7759v-13.1975c0-3.2511-2.722-5.89064-6.0415-5.89064z"/><path d="m62.9087 12.732c0-1.4163.9626-2.4464 2.39-2.4464h4.415v-5.63307h-6.5727c-3.3195 0-6.0415 2.6395-6.0415 5.85837v16.8993h5.8092z"/><path d="m7.80498 4.16968v15.28982c0 1.5451-.76349 2.3498-2.42324 2.3498l-4.38174.0322v5.6331h6.57261c3.31949 0 6.04149-2.6395 6.04149-5.8584v-17.44652z"/><path d="m88.0042 18.2685v-8.2404c0-3.21892-2.722-5.85842-6.0415-5.85842h-4.5477c-3.3195 0-6.0415 2.6395-6.0415 5.85842v11.5559c0 3.2189 2.722 5.8584 6.0415 5.8584h10.5892v-5.6009h-8.4648c-1.3941 0-2.39-1.0301-2.39-2.4464v-1.1266zm-10.8548-4.8927s0-.5794 0-1.6095c0-1.03.9295-1.89915 2.0249-1.96353h.9627c1.0954.06438 2.0248.93353 2.0248 1.96353v1.6095z"/><path d="m107.656 10.5431c0-3.2189-2.722-5.85841-6.042-5.85841h-10.5891v22.75771h5.8091v-17.1568h2.6556c1.3944 0 2.3904 1.03 2.3904 2.4464v14.7104h5.809v-16.8993z"/></g><path d="m118.308 27.249h-2.452v-9.1903c-.896.8331-1.951 1.4493-3.167 1.8485v-2.213c.64-.2082 1.335-.6017 2.085-1.1802.751-.5843 1.265-1.2641 1.545-2.0394h1.989z" fill="#f87f7c"/><path d="m124.085 20.3845c-.634-.2661-1.097-.6306-1.388-1.0935-.285-.4686-.427-.9806-.427-1.536 0-.9488.331-1.7328.994-2.3518.669-.6191 1.618-.9286 2.845-.9286 1.216 0 2.158.3095 2.827.9286.675.619 1.012 1.403 1.012 2.3518 0 .5901-.154 1.1166-.462 1.5794-.308.4571-.742.8071-1.3 1.0501.709.2835 1.247.6971 1.614 1.241.372.5438.558 1.1715.558 1.8832 0 1.1744-.378 2.129-1.134 2.8638-.75.7347-1.751 1.1021-3.002 1.1021-1.163 0-2.132-.3037-2.905-.9112-.914-.7174-1.37-1.7009-1.37-2.9506 0-.6885.171-1.3191.515-1.8919.343-.5785.884-1.024 1.623-1.3364zm.506-2.456c0 .486.136.865.41 1.1369.279.2719.648.4079 1.108.4079.465 0 .838-.136 1.117-.4079.279-.2777.419-.6595.419-1.1455 0-.4571-.14-.8216-.419-1.0935-.274-.2777-.637-.4165-1.091-.4165-.471 0-.846.1388-1.125.4165-.28.2777-.419.6451-.419 1.1021zm-.227 5.45c0 .6711.171 1.1947.515 1.5707.349.3761.782.5641 1.3.5641.506 0 .925-.1793 1.256-.538.332-.3645.498-.8881.498-1.5708 0-.5959-.169-1.0732-.506-1.4319-.338-.3645-.765-.5467-1.283-.5467-.599 0-1.047.2054-1.344.6161-.291.4108-.436.8563-.436 1.3365z" fill="#f87f7c"/><path d="m135.262 25.4179v-3.3064h-3.35v-2.2824h3.35v-3.3064h2.234v3.3064h3.359v2.2824h-3.359v3.3064z" fill="#f87f7c"/></svg>