<svg fill="none" height="32" viewBox="0 0 108 32" width="108" xmlns="http://www.w3.org/2000/svg" xmlns:xlink="http://www.w3.org/1999/xlink"><clipPath id="a"><path d="m0 0h108v32h-108z"/></clipPath><g clip-path="url(#a)"><path d="m11.2573 21.6484h1.9917v1.9313h1.9917v1.9314h1.9917v1.9313h11.9834v-1.9313h1.9917v-1.9314h1.9917v-1.9313h1.9917v-11.65249h-1.9917v-1.93135h-1.9917v-1.93135h-1.9917v-1.96353h-11.9502v1.93134h-1.9917v1.93135h-1.9917v1.93135h-1.9917v11.68468zm13.9751-3.8949h-3.9834v-3.8627h3.9834z" fill="#c60312"/><g fill="#fff"><path d="m48.4025 8.35426h-4.7801v-4.18458h-5.8091v23.24052h5.8091v-13.4228h2.6556c1.3942 0 2.3901 1.03 2.3901 2.4463v11.0087h5.7759v-13.1975c0-3.2511-2.722-5.89064-6.0415-5.89064z"/><path d="m62.9087 12.732c0-1.4163.9626-2.4464 2.39-2.4464h4.415v-5.63307h-6.5727c-3.3195 0-6.0415 2.6395-6.0415 5.85837v16.8993h5.8092z"/><path d="m7.80498 4.16968v15.28982c0 1.5451-.76349 2.3498-2.42324 2.3498l-4.38174.0322v5.6331h6.57261c3.31949 0 6.04149-2.6395 6.04149-5.8584v-17.44652z"/><path d="m88.0042 18.2685v-8.2404c0-3.21892-2.722-5.85842-6.0415-5.85842h-4.5477c-3.3195 0-6.0415 2.6395-6.0415 5.85842v11.5559c0 3.2189 2.722 5.8584 6.0415 5.8584h10.5892v-5.6009h-8.4648c-1.3941 0-2.39-1.0301-2.39-2.4464v-1.1266zm-10.8548-4.8927s0-.5794 0-1.6095c0-1.03.9295-1.89915 2.0249-1.96353h.9627c1.0954.06438 2.0248.93353 2.0248 1.96353v1.6095z"/><path d="m107.656 10.5431c0-3.2189-2.722-5.85841-6.042-5.85841h-10.5891v22.75771h5.8091v-17.1568h2.6556c1.3944 0 2.3904 1.03 2.3904 2.4464v14.7104h5.809v-16.8993z"/></g></g></svg>