<?xml version="1.0" encoding="UTF-8" standalone="no"?>
<!DOCTYPE svg PUBLIC "-//W3C//DTD SVG 1.1//EN" "http://www.w3.org/Graphics/SVG/1.1/DTD/svg11.dtd">
<svg width="100%" height="100%" viewBox="0 0 635 147" version="1.1" xmlns="http://www.w3.org/2000/svg" xmlns:xlink="http://www.w3.org/1999/xlink" xml:space="preserve" xmlns:serif="http://www.serif.com/" style="fill-rule:evenodd;clip-rule:evenodd;stroke-linejoin:round;stroke-miterlimit:2;">
    <g id="Artboard1" transform="matrix(1.0057,0,0,1.01453,-0.368914,-0.445307)">
        <rect x="0.367" y="0.439" width="631.015" height="144.42" style="fill:none;"/>
        <g transform="matrix(0.994332,0,0,0.98568,1.85647,1.62027)">
            <path d="M112.9,113C112.9,112.9 112.8,112.9 112.9,113ZM122.4,116.1C122.4,116.1 122.3,116.1 122.4,116.1ZM115.9,35.2C117.2,31.7 117.8,27 116.6,22.5C115.5,18.5 113,14.4 108.3,10.8C107.1,9.9 104.1,7.7 100.7,6C91.3,1.6 81,-0.3 69.8,0.1C52.1,0.7 34.9,7.9 22.3,20C9,32.8 0.7,51 0,69.7C-0.3,76.9 0.9,85.1 2.6,91.7C4.7,98 12.4,98.1 15,91.9C15,91.8 24.9,66.2 30.5,51.8C30.5,51.8 32.7,46.4 35,44C35.7,43.1 36.6,42.4 37.5,41.6C41.1,38.7 45.5,37 50,36.8C54.5,36.5 59.1,37.7 63,40.3C64.9,41.6 66.7,43.2 68,44.9C68.1,45.1 70.3,48.3 70.3,48.3C74.6,55.2 79,62.2 83.4,69.1L90,79.6L90,79.7C91.9,83.2 97.5,83.1 99.3,78.8C103.1,68.7 115.2,36.9 115.9,35.2ZM122.1,113C122.1,113 122.1,112.9 122.1,113Z" style="fill:white;fill-rule:nonzero;"/>
        </g>
        <g transform="matrix(0.994332,0,0,0.98568,1.85647,1.62027)">
            <path d="M139.8,47.3C137.6,41.3 129,41.6 127.2,47.7L126.3,50.7C122.7,62.5 118.5,76.3 114.1,91.1C113.8,92 112.4,96.8 111.6,98.1C109.8,101.6 106.7,104.6 103.1,106.3C99.5,108.1 95.4,108.6 91.3,107.9C89.3,107.6 87.3,106.8 85.4,105.8C81.7,103.6 76,96 76,96C74.8,94.4 73.6,92.7 72.4,91C70,87.7 67.6,84.4 65.1,81L58.5,72C56.1,68.7 51,69.6 49.8,73.5C46.8,83.1 44,92.1 41.4,100.2C39.4,106.7 37.5,112.6 35.9,117.8C35.2,120.6 34.7,124.5 35.5,128C36.6,131.9 39.1,136.6 45.3,139.5C50.4,141.7 63.3,144.7 74.8,144.4C112.3,143 142.7,112.7 144.2,75.3C144.6,65.4 143,55.9 139.8,47.3Z" style="fill:white;fill-rule:nonzero;"/>
        </g>
        <g transform="matrix(0.842037,0,0,0.83471,184.144,19.7952)">
            <path d="M235.5,16.3L207.3,23.6L205.2,40.3L191.1,40.3L188.7,63L202.5,63L198.2,97.8C195.6,117.9 203.5,128 227.4,128C231.2,128 237.6,127.3 241.6,126.3L244.2,105C242.8,105.3 239.4,106 235.8,106C227.1,106 224.9,102.2 225.7,95.6L229.8,63L251,63L253.7,40.3L232.5,40.3L235.5,16.3ZM441,42.7L406.9,42.7L381.6,70L390.3,0L363.8,0L348.1,128L374.6,128L377.8,101.5L384,95.7L399.9,128L433.1,128L403.6,77.5L441,42.7ZM60.4,40.4C59.7,40.4 59,40.4 58.3,40.5L10.8,40.5L10,47L10,47.3L0.1,128.1L27.4,128.1L34.2,71.1L34.7,67L35.3,62.6L50.6,62.6C57.9,62.6 59.6,66.9 58.8,73.2L52.1,128.2L79.4,128.2L86.6,69.1C88.7,52.7 83.6,40.4 60.4,40.4ZM155.6,40.3L148.1,101.4L148,101.4L147.4,105.8L132.3,105.8C125,105.8 123.3,101.5 123.9,95.2L130.7,40.2L103.4,40.2L96.1,99.3C94.4,114.1 98.4,125.5 116.3,127.6C117.6,127.8 119.8,128 119.8,128L172.2,128L173.2,119.6L173.1,119.6L182.8,40.3L155.6,40.3ZM527,40.3L499.7,40.3L492.2,101.4L491.6,105.8L476.5,105.8C469.2,105.8 467.5,101.5 468.1,95.2L474.9,40.2L447.6,40.2L440.3,99.3C438.6,114 442.6,125.4 460.1,127.6C461.4,127.8 464.2,128 464.2,128L516.2,128L517.4,118.1L527,40.3ZM343.2,40.3L316.3,40.3L315.9,42.9C311,39.9 304.5,37.9 294.9,37.9C272.7,37.9 260.1,51.6 256.2,83C252.4,114.4 261.7,128.1 283.8,128.1L332.5,128.1L332.8,125.8L332.8,125.7L343.2,40.3ZM309.9,88.4L308.2,102.3L308.1,102.3L307.6,105.8L295.7,105.8C283.1,105.8 281.4,97.6 283.1,82.9C285,68.4 288.7,60 301.4,60C308.2,60 313,63.6 313,63.6L309.9,88.4Z" style="fill:white;fill-rule:nonzero;"/>
        </g>
    </g>
</svg>
